%TF.GenerationSoftware,Altium Limited,Altium Designer,26.9.1 (10)*%
G04 Layer_Color=16711935*
G04 Board_Origin=0|0*
%FSLAX45Y45*%
%MOMM*%
%TF.SameCoordinates,37759D03-2DEC-416C-86D4-F72473D3A6F1*%
%TF.FilePolarity,Positive*%
%TF.FileFunction,Other,Top_Assembly*%
%TF.Part,Single*%
G01*
G75*
%TA.AperFunction,NonConductor*%
%ADD40C,0.20000*%
%ADD41C,0.25400*%
D40*
X7405000Y4680000D02*
Y5800000D01*
Y4680000D02*
X8995000D01*
Y5800000D01*
X7405000D02*
X8995000D01*
X10109300Y8336800D02*
Y8966400D01*
X9098700D02*
X10109300D01*
X9098700Y8336800D02*
Y8966400D01*
Y8336800D02*
X10109300D01*
X11020000Y7015000D02*
X11613000D01*
Y7875000D01*
X11020000D02*
X11613000D01*
X11020000Y7015000D02*
Y7875000D01*
X10392500Y6540000D02*
X10507500D01*
Y6760000D01*
X10392500D02*
X10507500D01*
X10392500Y6540000D02*
Y6760000D01*
X9564750Y6189715D02*
X10235250D01*
X9564750Y5410285D02*
Y6189715D01*
Y5410285D02*
X10235250D01*
Y6189715D01*
X7020000Y6682500D02*
Y6977500D01*
Y6682500D02*
X7400000D01*
Y6977500D01*
X7020000D02*
X7400000D01*
D41*
X6450000Y4727000D02*
G03*
X6577000Y4600000I127000J0D01*
G01*
Y9600000D02*
G03*
X6450000Y9473000I0J-127000D01*
G01*
X11600000D02*
G03*
X11473000Y9600000I-127000J0D01*
G01*
Y4600000D02*
G03*
X11600000Y4727000I0J127000D01*
G01*
X6577000Y4600000D02*
X6850000D01*
X6450000Y4727000D02*
Y9473000D01*
X6577000Y9600000D02*
X11473000D01*
X11600000Y4727000D02*
Y9473000D01*
X11350000Y4600000D02*
X11473000D01*
X6850000D02*
X11350000D01*
%TF.MD5,340f50f7679e52eaf73d4a6ead7321f7*%
M02*
