%TF.GenerationSoftware,Altium Limited,Altium Designer,26.9.1 (10)*%
G04 Layer_Physical_Order=2*
G04 Layer_Color=36540*
G04 Board_Origin=0|0*
%FSLAX45Y45*%
%MOMM*%
%TF.SameCoordinates,37759D03-2DEC-416C-86D4-F72473D3A6F1*%
%TF.FilePolarity,Positive*%
%TF.FileFunction,Copper,L2,Inr,Signal*%
%TF.Part,Single*%
G01*
G75*
%TA.AperFunction,ComponentPad*%
%ADD33C,1.40000*%
%ADD34C,0.99100*%
%TA.AperFunction,ViaPad*%
%ADD35C,0.70000*%
%ADD36C,3.00000*%
G36*
X11473000Y4700000D02*
X11408564D01*
X11396590Y4722401D01*
X11397937Y4724417D01*
X11411159Y4756338D01*
X11417900Y4790225D01*
Y4824775D01*
X11411159Y4858662D01*
X11397937Y4890583D01*
X11378742Y4919311D01*
X11354311Y4943742D01*
X11325583Y4962937D01*
X11293662Y4976159D01*
X11259775Y4982900D01*
X11225225D01*
X11191338Y4976159D01*
X11159417Y4962937D01*
X11130689Y4943742D01*
X11106258Y4919311D01*
X11087063Y4890583D01*
X11073841Y4858662D01*
X11067100Y4824775D01*
Y4790225D01*
X11073841Y4756338D01*
X11087063Y4724417D01*
X11088410Y4722401D01*
X11076436Y4700000D01*
X6958564D01*
X6946590Y4722401D01*
X6947937Y4724417D01*
X6961159Y4756338D01*
X6967900Y4790225D01*
Y4824775D01*
X6961159Y4858662D01*
X6947937Y4890583D01*
X6928742Y4919311D01*
X6904311Y4943742D01*
X6875583Y4962937D01*
X6843662Y4976159D01*
X6809775Y4982900D01*
X6775225D01*
X6741338Y4976159D01*
X6709417Y4962937D01*
X6680689Y4943742D01*
X6656258Y4919311D01*
X6637063Y4890583D01*
X6623841Y4858662D01*
X6617100Y4824775D01*
Y4790225D01*
X6623841Y4756338D01*
X6637063Y4724417D01*
X6638410Y4722401D01*
X6626436Y4700000D01*
X6577000D01*
X6550000Y9350000D01*
X6595281Y9395281D01*
X6618690Y9382769D01*
X6617100Y9374775D01*
Y9340225D01*
X6623841Y9306338D01*
X6637063Y9274417D01*
X6656258Y9245689D01*
X6680689Y9221258D01*
X6709417Y9202063D01*
X6741338Y9188841D01*
X6775225Y9182100D01*
X6809775D01*
X6843662Y9188841D01*
X6875583Y9202063D01*
X6904311Y9221258D01*
X6928742Y9245689D01*
X6947937Y9274417D01*
X6961159Y9306338D01*
X6967900Y9340225D01*
Y9374775D01*
X6961159Y9408662D01*
X6947937Y9440583D01*
X6928742Y9469311D01*
X6923453Y9474600D01*
X6933974Y9500000D01*
X11184779D01*
X11191338Y9476159D01*
X11159417Y9462937D01*
X11130689Y9443742D01*
X11106258Y9419311D01*
X11087063Y9390583D01*
X11073841Y9358662D01*
X11067100Y9324775D01*
Y9290225D01*
X11073841Y9256338D01*
X11087063Y9224417D01*
X11106258Y9195689D01*
X11130689Y9171258D01*
X11159417Y9152063D01*
X11191338Y9138841D01*
X11225225Y9132100D01*
X11259775D01*
X11293662Y9138841D01*
X11325583Y9152063D01*
X11354311Y9171258D01*
X11378742Y9195689D01*
X11397937Y9224417D01*
X11411159Y9256338D01*
X11417900Y9290225D01*
Y9324775D01*
X11411159Y9358662D01*
X11397937Y9390583D01*
X11378742Y9419311D01*
X11354311Y9443742D01*
X11325583Y9462937D01*
X11293662Y9476159D01*
X11300221Y9500000D01*
X11473000D01*
Y4700000D01*
D02*
G37*
%LPC*%
G36*
X9554514Y9467900D02*
X9530486D01*
X9508286Y9458705D01*
X9491295Y9441714D01*
X9482100Y9419514D01*
Y9395486D01*
X9491295Y9373286D01*
X9508286Y9356295D01*
X9530486Y9347100D01*
X9554514D01*
X9576714Y9356295D01*
X9593705Y9373286D01*
X9602900Y9395486D01*
Y9419514D01*
X9593705Y9441714D01*
X9576714Y9458705D01*
X9554514Y9467900D01*
D02*
G37*
G36*
X9581559Y9295400D02*
X9556440D01*
X9532177Y9288898D01*
X9510423Y9276339D01*
X9492661Y9258577D01*
X9480101Y9236823D01*
X9473600Y9212559D01*
Y9187440D01*
X9480101Y9163177D01*
X9492661Y9141423D01*
X9510423Y9123661D01*
X9532177Y9111101D01*
X9556440Y9104600D01*
X9581559D01*
X9605823Y9111101D01*
X9627577Y9123661D01*
X9645339Y9141423D01*
X9657898Y9163177D01*
X9664400Y9187440D01*
Y9212559D01*
X9657898Y9236823D01*
X9645339Y9258577D01*
X9627577Y9276339D01*
X9605823Y9288898D01*
X9581559Y9295400D01*
D02*
G37*
G36*
X9007830Y9071216D02*
X8983802D01*
X8961602Y9062020D01*
X8944611Y9045030D01*
X8938775Y9030940D01*
X8911949Y9029329D01*
X8908293Y9038157D01*
X8891302Y9055148D01*
X8869102Y9064343D01*
X8845074D01*
X8822874Y9055148D01*
X8805883Y9038157D01*
X8796688Y9015958D01*
Y9003542D01*
X8792317Y9000542D01*
X8771288Y8994628D01*
X8758577Y9007339D01*
X8736823Y9019898D01*
X8712560Y9026400D01*
X8687441D01*
X8663177Y9019898D01*
X8641423Y9007339D01*
X8623661Y8989577D01*
X8611102Y8967823D01*
X8604600Y8943559D01*
Y8918440D01*
X8611102Y8894177D01*
X8623661Y8872423D01*
X8641423Y8854661D01*
X8663177Y8842101D01*
X8687441Y8835600D01*
X8712560D01*
X8736823Y8842101D01*
X8758577Y8854661D01*
X8776339Y8872423D01*
X8788899Y8894177D01*
X8795400Y8918440D01*
Y8943559D01*
X8795132Y8944560D01*
X8817905Y8957708D01*
X8822874Y8952739D01*
X8845074Y8943543D01*
X8869102D01*
X8891302Y8952739D01*
X8908293Y8969730D01*
X8914129Y8983820D01*
X8940954Y8985430D01*
X8944611Y8976602D01*
X8961602Y8959611D01*
X8983802Y8950416D01*
X9007830D01*
X9030030Y8959611D01*
X9047021Y8976602D01*
X9056216Y8998802D01*
Y9022830D01*
X9047021Y9045030D01*
X9030030Y9062020D01*
X9007830Y9071216D01*
D02*
G37*
G36*
X10343559Y9295400D02*
X10318440D01*
X10294177Y9288898D01*
X10272423Y9276339D01*
X10254661Y9258577D01*
X10242101Y9236823D01*
X10235600Y9212559D01*
Y9187440D01*
X10242101Y9163177D01*
X10254661Y9141423D01*
X10272423Y9123661D01*
X10294177Y9111101D01*
X10318440Y9104600D01*
X10338566D01*
X10339949Y9103588D01*
X10349454Y9091698D01*
X10354262Y9081172D01*
X10348860Y9068129D01*
Y9044101D01*
X10358055Y9021901D01*
X10375046Y9004911D01*
X10397246Y8995715D01*
X10421274D01*
X10443474Y9004911D01*
X10460464Y9021901D01*
X10469660Y9044101D01*
Y9068129D01*
X10460464Y9090329D01*
X10443474Y9107320D01*
X10421274Y9116515D01*
X10418352D01*
X10407339Y9141423D01*
X10419898Y9163177D01*
X10426400Y9187440D01*
Y9212559D01*
X10419898Y9236823D01*
X10407339Y9258577D01*
X10389577Y9276339D01*
X10367823Y9288898D01*
X10343559Y9295400D01*
D02*
G37*
G36*
X8312559Y9026400D02*
X8287440D01*
X8263177Y9019898D01*
X8241423Y9007339D01*
X8223661Y8989577D01*
X8211101Y8967823D01*
X8204600Y8943559D01*
Y8918440D01*
X8211101Y8894177D01*
X8223661Y8872423D01*
X8241423Y8854661D01*
X8263177Y8842101D01*
X8287440Y8835600D01*
X8312559D01*
X8336823Y8842101D01*
X8358577Y8854661D01*
X8376339Y8872423D01*
X8388898Y8894177D01*
X8395400Y8918440D01*
Y8943559D01*
X8388898Y8967823D01*
X8376339Y8989577D01*
X8358577Y9007339D01*
X8336823Y9019898D01*
X8312559Y9026400D01*
D02*
G37*
G36*
X9359867Y8828149D02*
X9340132D01*
X9321070Y8823042D01*
X9303980Y8813174D01*
X9290025Y8799220D01*
X9280158Y8782129D01*
X9275050Y8763067D01*
Y8743332D01*
X9280158Y8724270D01*
X9290025Y8707179D01*
X9303980Y8693225D01*
X9321070Y8683358D01*
X9340132Y8678250D01*
X9359867D01*
X9378929Y8683358D01*
X9396020Y8693225D01*
X9409975Y8707179D01*
X9419842Y8724270D01*
X9424950Y8743332D01*
Y8763067D01*
X9419842Y8782129D01*
X9409975Y8799220D01*
X9396020Y8813174D01*
X9378929Y8823042D01*
X9359867Y8828149D01*
D02*
G37*
G36*
X9867867Y8726549D02*
X9848132D01*
X9829070Y8721442D01*
X9811980Y8711574D01*
X9798025Y8697620D01*
X9788158Y8680529D01*
X9783050Y8661467D01*
Y8641732D01*
X9788158Y8622670D01*
X9798025Y8605579D01*
X9811980Y8591625D01*
X9829070Y8581758D01*
X9848132Y8576650D01*
X9867867D01*
X9886929Y8581758D01*
X9904020Y8591625D01*
X9917975Y8605579D01*
X9927842Y8622670D01*
X9932950Y8641732D01*
Y8661467D01*
X9927842Y8680529D01*
X9917975Y8697620D01*
X9904020Y8711574D01*
X9886929Y8721442D01*
X9867867Y8726549D01*
D02*
G37*
G36*
X9731037Y8740998D02*
X9477037D01*
X9467126Y8739026D01*
X9458724Y8733412D01*
X9453110Y8725010D01*
X9451139Y8715100D01*
Y8588100D01*
X9453110Y8578189D01*
X9458724Y8569788D01*
X9467126Y8564174D01*
X9477037Y8562202D01*
X9731037D01*
X9740947Y8564174D01*
X9749349Y8569788D01*
X9754963Y8578189D01*
X9756934Y8588100D01*
Y8715100D01*
X9754963Y8725010D01*
X9749349Y8733412D01*
X9740947Y8739026D01*
X9731037Y8740998D01*
D02*
G37*
G36*
X9359867Y8624949D02*
X9340132D01*
X9321070Y8619842D01*
X9303980Y8609974D01*
X9290025Y8596020D01*
X9280158Y8578929D01*
X9275050Y8559867D01*
Y8540132D01*
X9280158Y8521070D01*
X9290025Y8503979D01*
X9303980Y8490025D01*
X9321070Y8480158D01*
X9340132Y8475050D01*
X9359867D01*
X9378929Y8480158D01*
X9396020Y8490025D01*
X9409975Y8503979D01*
X9419842Y8521070D01*
X9424950Y8540132D01*
Y8559867D01*
X9419842Y8578929D01*
X9409975Y8596020D01*
X9396020Y8609974D01*
X9378929Y8619842D01*
X9359867Y8624949D01*
D02*
G37*
G36*
X8712560Y8264400D02*
X8687441D01*
X8663177Y8257898D01*
X8641423Y8245339D01*
X8623661Y8227577D01*
X8613897Y8210665D01*
X8600000Y8207973D01*
X8586103Y8210665D01*
X8576339Y8227577D01*
X8558577Y8245339D01*
X8536823Y8257898D01*
X8512560Y8264400D01*
X8487440D01*
X8463177Y8257898D01*
X8441423Y8245339D01*
X8423661Y8227577D01*
X8413897Y8210665D01*
X8400000Y8207973D01*
X8386103Y8210665D01*
X8376339Y8227577D01*
X8358577Y8245339D01*
X8336823Y8257898D01*
X8312559Y8264400D01*
X8287440D01*
X8263177Y8257898D01*
X8241423Y8245339D01*
X8223661Y8227577D01*
X8211101Y8205823D01*
X8204600Y8181559D01*
Y8156440D01*
X8211101Y8132177D01*
X8223661Y8110423D01*
X8241423Y8092661D01*
X8263177Y8080101D01*
X8287440Y8073600D01*
X8312559D01*
X8336823Y8080101D01*
X8358577Y8092661D01*
X8376339Y8110423D01*
X8386103Y8127335D01*
X8400000Y8130027D01*
X8413897Y8127335D01*
X8423661Y8110423D01*
X8441423Y8092661D01*
X8463177Y8080101D01*
X8487440Y8073600D01*
X8512560D01*
X8536823Y8080101D01*
X8558577Y8092661D01*
X8576339Y8110423D01*
X8586103Y8127335D01*
X8600000Y8130027D01*
X8613897Y8127335D01*
X8623661Y8110423D01*
X8641423Y8092661D01*
X8663177Y8080101D01*
X8687441Y8073600D01*
X8712560D01*
X8736823Y8080101D01*
X8758577Y8092661D01*
X8776339Y8110423D01*
X8788899Y8132177D01*
X8795400Y8156440D01*
Y8181559D01*
X8788899Y8205823D01*
X8776339Y8227577D01*
X8758577Y8245339D01*
X8736823Y8257898D01*
X8712560Y8264400D01*
D02*
G37*
G36*
X7554514Y8317900D02*
X7530486D01*
X7508286Y8308705D01*
X7491295Y8291714D01*
X7482100Y8269514D01*
Y8245486D01*
X7491295Y8223286D01*
X7508286Y8206295D01*
X7530486Y8197100D01*
X7554514D01*
X7576714Y8206295D01*
X7593705Y8223286D01*
X7602900Y8245486D01*
Y8269514D01*
X7593705Y8291714D01*
X7576714Y8308705D01*
X7554514Y8317900D01*
D02*
G37*
G36*
X9054514Y8217900D02*
X9030486D01*
X9008286Y8208705D01*
X8991295Y8191714D01*
X8982100Y8169514D01*
Y8145486D01*
X8991295Y8123286D01*
X9008286Y8106295D01*
X9030486Y8097100D01*
X9054514D01*
X9076714Y8106295D01*
X9093705Y8123286D01*
X9102900Y8145486D01*
Y8169514D01*
X9093705Y8191714D01*
X9076714Y8208705D01*
X9054514Y8217900D01*
D02*
G37*
G36*
X7454514Y8117900D02*
X7430486D01*
X7408286Y8108705D01*
X7391296Y8091714D01*
X7382100Y8069514D01*
Y8045486D01*
X7391296Y8023286D01*
X7408286Y8006295D01*
X7430486Y7997100D01*
X7454514D01*
X7476714Y8006295D01*
X7493705Y8023286D01*
X7502900Y8045486D01*
Y8069514D01*
X7493705Y8091714D01*
X7476714Y8108705D01*
X7454514Y8117900D01*
D02*
G37*
G36*
X8089869Y8103255D02*
X8065841D01*
X8043641Y8094060D01*
X8026650Y8077069D01*
X8017455Y8054869D01*
Y8030841D01*
X8026650Y8008641D01*
X8043641Y7991651D01*
X8065841Y7982455D01*
X8089869D01*
X8112069Y7991651D01*
X8129060Y8008641D01*
X8138255Y8030841D01*
Y8054869D01*
X8129060Y8077069D01*
X8112069Y8094060D01*
X8089869Y8103255D01*
D02*
G37*
G36*
X9316879Y7895693D02*
X9292851D01*
X9270651Y7886498D01*
X9253660Y7869507D01*
X9244465Y7847307D01*
Y7823279D01*
X9253660Y7801079D01*
X9270651Y7784089D01*
X9292851Y7774893D01*
X9316879D01*
X9339079Y7784089D01*
X9356069Y7801079D01*
X9365265Y7823279D01*
Y7847307D01*
X9356069Y7869507D01*
X9339079Y7886498D01*
X9316879Y7895693D01*
D02*
G37*
G36*
X8216879D02*
X8192851D01*
X8170651Y7886498D01*
X8153660Y7869507D01*
X8144465Y7847307D01*
Y7823279D01*
X8153660Y7801079D01*
X8170651Y7784089D01*
X8192851Y7774893D01*
X8216879D01*
X8239079Y7784089D01*
X8256070Y7801079D01*
X8265265Y7823279D01*
Y7847307D01*
X8256070Y7869507D01*
X8239079Y7886498D01*
X8216879Y7895693D01*
D02*
G37*
G36*
X8704915Y7767900D02*
X8680886D01*
X8658687Y7758705D01*
X8641696Y7741714D01*
X8632500Y7719514D01*
Y7695486D01*
X8641696Y7673286D01*
X8658687Y7656296D01*
X8680886Y7647100D01*
X8704915D01*
X8727114Y7656296D01*
X8744105Y7673286D01*
X8753300Y7695486D01*
Y7719514D01*
X8744105Y7741714D01*
X8727114Y7758705D01*
X8704915Y7767900D01*
D02*
G37*
G36*
X7762560Y7276400D02*
X7737440D01*
X7713177Y7269899D01*
X7691423Y7257339D01*
X7673661Y7239577D01*
X7661102Y7217823D01*
X7654600Y7193560D01*
Y7168441D01*
X7661102Y7144177D01*
X7673661Y7122423D01*
X7691423Y7104661D01*
X7713177Y7092102D01*
X7737440Y7085600D01*
X7762560D01*
X7786823Y7092102D01*
X7808577Y7104661D01*
X7826339Y7122423D01*
X7838898Y7144177D01*
X7845400Y7168441D01*
Y7193560D01*
X7838898Y7217823D01*
X7826339Y7239577D01*
X7808577Y7257339D01*
X7786823Y7269899D01*
X7762560Y7276400D01*
D02*
G37*
G36*
X8004514Y6717900D02*
X7980486D01*
X7958286Y6708705D01*
X7941296Y6691714D01*
X7932100Y6669514D01*
Y6645486D01*
X7941296Y6623286D01*
X7958286Y6606295D01*
X7980486Y6597100D01*
X8004514D01*
X8026714Y6606295D01*
X8043705Y6623286D01*
X8052900Y6645486D01*
Y6669514D01*
X8043705Y6691714D01*
X8026714Y6708705D01*
X8004514Y6717900D01*
D02*
G37*
G36*
X7762560Y6514400D02*
X7737440D01*
X7713177Y6507899D01*
X7691423Y6495339D01*
X7673661Y6477577D01*
X7661102Y6455823D01*
X7654600Y6431560D01*
Y6406441D01*
X7661102Y6382177D01*
X7673661Y6360423D01*
X7691423Y6342661D01*
X7713177Y6330102D01*
X7737440Y6323600D01*
X7762560D01*
X7786823Y6330102D01*
X7808577Y6342661D01*
X7826339Y6360423D01*
X7838898Y6382177D01*
X7845400Y6406441D01*
Y6431560D01*
X7838898Y6455823D01*
X7826339Y6477577D01*
X7808577Y6495339D01*
X7786823Y6507899D01*
X7762560Y6514400D01*
D02*
G37*
G36*
X9262560Y6376400D02*
X9237441D01*
X9213177Y6369898D01*
X9191423Y6357339D01*
X9173661Y6339577D01*
X9161102Y6317823D01*
X9154600Y6293559D01*
Y6268440D01*
X9161102Y6244177D01*
X9173661Y6222423D01*
X9191423Y6204661D01*
X9213177Y6192101D01*
X9237441Y6185600D01*
X9262560D01*
X9286823Y6192101D01*
X9308577Y6204661D01*
X9326339Y6222423D01*
X9338899Y6244177D01*
X9345400Y6268440D01*
Y6293559D01*
X9338899Y6317823D01*
X9326339Y6339577D01*
X9308577Y6357339D01*
X9286823Y6369898D01*
X9262560Y6376400D01*
D02*
G37*
G36*
X10912559Y5664400D02*
X10887440D01*
X10863177Y5657899D01*
X10841423Y5645339D01*
X10823661Y5627577D01*
X10811101Y5605823D01*
X10804600Y5581560D01*
Y5556440D01*
X10811101Y5532177D01*
X10823661Y5510423D01*
X10841423Y5492661D01*
X10863177Y5480102D01*
X10887440Y5473600D01*
X10912559D01*
X10936823Y5480102D01*
X10958577Y5492661D01*
X10976339Y5510423D01*
X10988898Y5532177D01*
X10995400Y5556440D01*
Y5581560D01*
X10988898Y5605823D01*
X10976339Y5627577D01*
X10958577Y5645339D01*
X10936823Y5657899D01*
X10912559Y5664400D01*
D02*
G37*
G36*
X9262560Y5614400D02*
X9237441D01*
X9213177Y5607898D01*
X9191423Y5595339D01*
X9173661Y5577577D01*
X9161102Y5555823D01*
X9154600Y5531559D01*
Y5506440D01*
X9161102Y5482177D01*
X9173661Y5460423D01*
X9191423Y5442661D01*
X9213177Y5430101D01*
X9237441Y5423600D01*
X9262560D01*
X9286823Y5430101D01*
X9308577Y5442661D01*
X9326339Y5460423D01*
X9338899Y5482177D01*
X9345400Y5506440D01*
Y5531559D01*
X9338899Y5555823D01*
X9326339Y5577577D01*
X9308577Y5595339D01*
X9286823Y5607898D01*
X9262560Y5614400D01*
D02*
G37*
G36*
X9112014Y5310400D02*
X9087986D01*
X9065786Y5301205D01*
X9048795Y5284214D01*
X9039600Y5262014D01*
Y5237986D01*
X9048795Y5215786D01*
X9065786Y5198795D01*
X9087986Y5189600D01*
X9112014D01*
X9134214Y5198795D01*
X9151205Y5215786D01*
X9160400Y5237986D01*
Y5262014D01*
X9151205Y5284214D01*
X9134214Y5301205D01*
X9112014Y5310400D01*
D02*
G37*
G36*
X8152401Y5124929D02*
X8128372D01*
X8106173Y5115733D01*
X8089182Y5098742D01*
X8079987Y5076543D01*
Y5052514D01*
X8089182Y5030315D01*
X8106173Y5013324D01*
X8128372Y5004129D01*
X8152401D01*
X8174600Y5013324D01*
X8191591Y5030315D01*
X8200786Y5052514D01*
Y5076543D01*
X8191591Y5098742D01*
X8174600Y5115733D01*
X8152401Y5124929D01*
D02*
G37*
%LPD*%
D33*
X10900000Y6331000D02*
D03*
X8500000Y8931000D02*
D03*
X9569000Y9200000D02*
D03*
X8700000Y8931000D02*
D03*
Y8169000D02*
D03*
X8300000Y8931000D02*
D03*
Y8169000D02*
D03*
X8500000D02*
D03*
X10331000Y9200000D02*
D03*
X7750000Y6419000D02*
D03*
Y7181000D02*
D03*
X10900000Y5569000D02*
D03*
X9250000Y6281000D02*
D03*
Y5519000D02*
D03*
D34*
X9350000Y8753200D02*
D03*
Y8550000D02*
D03*
X9858000Y8651600D02*
D03*
D35*
X8204865Y7835293D02*
D03*
X9304865D02*
D03*
X10409260Y9056115D02*
D03*
X8857088Y9003943D02*
D03*
X10900000Y7600000D02*
D03*
X9588789Y8790662D02*
D03*
X9442500Y7707500D02*
D03*
X10600000Y7150000D02*
D03*
X8879929Y9118209D02*
D03*
X8625000Y7430000D02*
D03*
X8735000D02*
D03*
X8845000D02*
D03*
X8515000Y7320000D02*
D03*
X8845000D02*
D03*
X8735000Y7210000D02*
D03*
Y7320000D02*
D03*
X8845000Y7210000D02*
D03*
X8735000Y7100000D02*
D03*
X8625000Y7320000D02*
D03*
Y7210000D02*
D03*
X8515000D02*
D03*
X8625000Y7100000D02*
D03*
X8515000D02*
D03*
X10800000Y6950000D02*
D03*
X10050000Y6400000D02*
D03*
X10550000Y6050000D02*
D03*
X10184962Y6302965D02*
D03*
X9106166Y4916376D02*
D03*
X8845000Y6990000D02*
D03*
Y7100000D02*
D03*
X8625000Y6990000D02*
D03*
X8515000D02*
D03*
X8735000D02*
D03*
X9000000Y6300000D02*
D03*
X8706381Y6341661D02*
D03*
X8492500Y9057500D02*
D03*
X8493169Y9044329D02*
D03*
X8489169Y9129229D02*
D03*
X7230000Y8452500D02*
D03*
Y8342500D02*
D03*
X7120000Y8452500D02*
D03*
Y8342500D02*
D03*
X6742500Y8007500D02*
D03*
X6642500Y8307500D02*
D03*
X8515000Y7430000D02*
D03*
X8405000Y7210000D02*
D03*
Y7430000D02*
D03*
Y7320000D02*
D03*
Y6990000D02*
D03*
Y7100000D02*
D03*
X7592500Y7457500D02*
D03*
X7120063Y7344260D02*
D03*
X6920063Y7094260D02*
D03*
X7292500Y6657500D02*
D03*
X6670063Y6944260D02*
D03*
X8140387Y5064529D02*
D03*
X9100000Y5250000D02*
D03*
X7542500Y8257500D02*
D03*
X8077855Y8042855D02*
D03*
X7992500Y6657500D02*
D03*
X7442500Y8057500D02*
D03*
X312500Y327500D02*
D03*
X8995816Y9010816D02*
D03*
X9542500Y9407500D02*
D03*
X9042500Y8157500D02*
D03*
X8692900Y7707500D02*
D03*
D36*
X6792500Y9357500D02*
D03*
Y4807500D02*
D03*
X11242500D02*
D03*
Y9307500D02*
D03*
%TF.MD5,10ba8b3e0381e52d855099676aa9439d*%
M02*
