%TF.GenerationSoftware,Altium Limited,Altium Designer,26.9.1 (10)*%
G04 Layer_Color=255*
G04 Board_Origin=0|0*
%FSLAX45Y45*%
%MOMM*%
%TF.SameCoordinates,37759D03-2DEC-416C-86D4-F72473D3A6F1*%
%TF.FilePolarity,Positive*%
%TF.FileFunction,Pads,Top*%
%TF.Part,Single*%
G01*
G75*
%TA.AperFunction,SMDPad,CuDef*%
%ADD10R,1.00000X1.10000*%
%ADD11R,1.30000X4.50000*%
%ADD12R,1.80000X3.90000*%
%TA.AperFunction,BGAPad,CuDef*%
%ADD13C,0.78700*%
%TA.AperFunction,ConnectorPad*%
%ADD14R,1.38000X0.45000*%
%TA.AperFunction,SMDPad,CuDef*%
%ADD15R,1.10000X1.00000*%
%ADD16O,0.80000X0.25000*%
%ADD17R,0.87213X1.00429*%
%ADD18O,0.25000X0.80000*%
%ADD19R,0.35000X0.85000*%
%ADD20R,0.80000X0.35000*%
%ADD21R,2.70000X2.60000*%
%ADD22R,5.60000X5.60000*%
%ADD23R,1.40000X1.15000*%
G04:AMPARAMS|DCode=24|XSize=1.00429mm|YSize=0.87213mm|CornerRadius=0.43606mm|HoleSize=0mm|Usage=FLASHONLY|Rotation=270.000|XOffset=0mm|YOffset=0mm|HoleType=Round|Shape=RoundedRectangle|*
%AMROUNDEDRECTD24*
21,1,1.00429,0.00000,0,0,270.0*
21,1,0.13216,0.87213,0,0,270.0*
1,1,0.87213,0.00000,-0.06608*
1,1,0.87213,0.00000,0.06608*
1,1,0.87213,0.00000,0.06608*
1,1,0.87213,0.00000,-0.06608*
%
%ADD24ROUNDEDRECTD24*%
%ADD25R,2.40000X3.30000*%
G04:AMPARAMS|DCode=26|XSize=1.00429mm|YSize=3.18213mm|CornerRadius=0.43687mm|HoleSize=0mm|Usage=FLASHONLY|Rotation=270.000|XOffset=0mm|YOffset=0mm|HoleType=Round|Shape=RoundedRectangle|*
%AMROUNDEDRECTD26*
21,1,1.00429,2.30840,0,0,270.0*
21,1,0.13056,3.18213,0,0,270.0*
1,1,0.87373,-1.15420,-0.06528*
1,1,0.87373,-1.15420,0.06528*
1,1,0.87373,1.15420,0.06528*
1,1,0.87373,1.15420,-0.06528*
%
%ADD26ROUNDEDRECTD26*%
%TA.AperFunction,ConnectorPad*%
%ADD27R,1.55000X1.42500*%
%ADD28R,1.90000X1.00000*%
%ADD29R,1.90000X1.80000*%
%ADD30R,1.30000X1.65000*%
%TA.AperFunction,SMDPad,CuDef*%
%ADD31R,0.80000X0.60000*%
%TA.AperFunction,ComponentPad*%
%ADD33C,1.40000*%
%ADD34C,0.99100*%
D10*
X7765000Y7620000D02*
D03*
Y7450000D02*
D03*
X9250000Y7515000D02*
D03*
X10700000Y6750000D02*
D03*
X10550000Y5885000D02*
D03*
X6750000Y8315000D02*
D03*
X8050000Y7435000D02*
D03*
Y7035000D02*
D03*
X6800000Y6935000D02*
D03*
X9250000Y7685000D02*
D03*
X10550000Y5715000D02*
D03*
X6750000Y8485000D02*
D03*
X8050000Y6865000D02*
D03*
Y7605000D02*
D03*
X10700000Y6580000D02*
D03*
X6800000Y6765000D02*
D03*
D11*
X7825000Y5565000D02*
D03*
X8075000D02*
D03*
X8325000D02*
D03*
X8575000D02*
D03*
D12*
X8895000Y4885000D02*
D03*
X7505000D02*
D03*
D13*
X9604000Y8715100D02*
D03*
X9477000Y8588100D02*
D03*
X9604000D02*
D03*
X9731000D02*
D03*
X9477000Y8715100D02*
D03*
X9731000D02*
D03*
D14*
X11134000Y7575000D02*
D03*
Y7510000D02*
D03*
Y7445000D02*
D03*
Y7380000D02*
D03*
Y7315000D02*
D03*
D15*
X8980000Y9200000D02*
D03*
X10620000Y7000000D02*
D03*
X9935000Y6400000D02*
D03*
X9015000Y6500000D02*
D03*
X8665000D02*
D03*
X7315000Y8800000D02*
D03*
X8435000Y7750000D02*
D03*
X6965000Y8800000D02*
D03*
X6865000Y8000000D02*
D03*
X7150000Y7200000D02*
D03*
X7485000Y8800000D02*
D03*
X9150000Y9200000D02*
D03*
X9185000Y6500000D02*
D03*
X8265000Y7750000D02*
D03*
X7320000Y7200000D02*
D03*
X9765000Y6400000D02*
D03*
X10450000Y7000000D02*
D03*
X7035000Y8000000D02*
D03*
X7135000Y8800000D02*
D03*
X8835000Y6500000D02*
D03*
D16*
X8965000Y7435000D02*
D03*
X8285000Y7135000D02*
D03*
X8965000Y7385000D02*
D03*
X8285000Y7185000D02*
D03*
X8965000Y7485000D02*
D03*
X8285000D02*
D03*
Y7085000D02*
D03*
Y7235000D02*
D03*
X8965000Y7335000D02*
D03*
Y7285000D02*
D03*
Y7235000D02*
D03*
Y7185000D02*
D03*
Y7135000D02*
D03*
Y7085000D02*
D03*
Y7035000D02*
D03*
Y6985000D02*
D03*
Y6935000D02*
D03*
X8285000D02*
D03*
Y6985000D02*
D03*
Y7035000D02*
D03*
Y7285000D02*
D03*
Y7335000D02*
D03*
Y7385000D02*
D03*
Y7435000D02*
D03*
D17*
X10129000Y6129500D02*
D03*
D18*
X8850000Y6870000D02*
D03*
X8400000Y7550000D02*
D03*
Y6870000D02*
D03*
X8550000D02*
D03*
X8500000D02*
D03*
X8450000D02*
D03*
X8900000Y7550000D02*
D03*
X8800000D02*
D03*
X8550000D02*
D03*
X8650000D02*
D03*
X8350000D02*
D03*
X8900000Y6870000D02*
D03*
X8600000Y7550000D02*
D03*
X8450000D02*
D03*
X8500000D02*
D03*
X8700000D02*
D03*
X8750000D02*
D03*
X8850000D02*
D03*
X8800000Y6870000D02*
D03*
X8750000D02*
D03*
X8700000D02*
D03*
X8650000D02*
D03*
X8600000D02*
D03*
X8350000D02*
D03*
D19*
X7200000Y8595000D02*
D03*
X7100000D02*
D03*
X7050000D02*
D03*
X7250000D02*
D03*
Y8200000D02*
D03*
X7050000D02*
D03*
X7100000D02*
D03*
X7150000D02*
D03*
X7200000D02*
D03*
X7300000D02*
D03*
X7150000Y8595000D02*
D03*
X7300000D02*
D03*
D20*
X7375000Y8272500D02*
D03*
X6975000D02*
D03*
Y8522500D02*
D03*
Y8472500D02*
D03*
Y8422500D02*
D03*
Y8372500D02*
D03*
Y8322500D02*
D03*
X7375000Y8522500D02*
D03*
Y8472500D02*
D03*
Y8422500D02*
D03*
Y8372500D02*
D03*
Y8322500D02*
D03*
D21*
X7175000Y8397500D02*
D03*
D22*
X8625000Y7210000D02*
D03*
D23*
X7320000Y6750000D02*
D03*
X7100000Y6910000D02*
D03*
X7320000D02*
D03*
X7100000Y6750000D02*
D03*
D24*
X9900000Y6129500D02*
D03*
X9671000D02*
D03*
D25*
X10150000Y5150000D02*
D03*
X10845000D02*
D03*
X9302500Y6850000D02*
D03*
X9997500D02*
D03*
D26*
X9900000Y5470500D02*
D03*
D27*
X11142500Y7693750D02*
D03*
Y7196250D02*
D03*
D28*
X11400000Y7600000D02*
D03*
D29*
Y7330000D02*
D03*
D30*
Y7782500D02*
D03*
Y7107500D02*
D03*
D31*
X10450000Y6580000D02*
D03*
Y6720000D02*
D03*
D33*
X10900000Y6331000D02*
D03*
X8500000Y8931000D02*
D03*
X9569000Y9200000D02*
D03*
X8700000Y8931000D02*
D03*
Y8169000D02*
D03*
X8300000Y8931000D02*
D03*
Y8169000D02*
D03*
X8500000D02*
D03*
X10331000Y9200000D02*
D03*
X7750000Y6419000D02*
D03*
Y7181000D02*
D03*
X10900000Y5569000D02*
D03*
X9250000Y6281000D02*
D03*
Y5519000D02*
D03*
D34*
X9350000Y8753200D02*
D03*
Y8550000D02*
D03*
X9858000Y8651600D02*
D03*
%TF.MD5,556280f0fc9c4de7c539dbfdb12ddb28*%
M02*
