%TF.GenerationSoftware,Altium Limited,Altium Designer,26.9.1 (10)*%
G04 Layer_Color=16711935*
G04 Board_Origin=0|0*
%FSLAX45Y45*%
%MOMM*%
%TF.SameCoordinates,37759D03-2DEC-416C-86D4-F72473D3A6F1*%
%TF.FilePolarity,Positive*%
%TF.FileFunction,Other,Top_3D_Body*%
%TF.Part,Single*%
G01*
G75*
%TA.AperFunction,NonConductor*%
%ADD40C,0.20000*%
%ADD44C,0.10000*%
%ADD45C,0.10160*%
G36*
X7483861Y8751990D02*
X7433810D01*
Y8847013D01*
X7483861D01*
Y8751990D01*
D02*
G37*
G36*
X7366912D02*
X7316970D01*
Y8847087D01*
X7366912D01*
Y8751990D01*
D02*
G37*
G36*
X7133861D02*
X7083810D01*
Y8847013D01*
X7133861D01*
Y8751990D01*
D02*
G37*
G36*
X7016912D02*
X6966970D01*
Y8847087D01*
X7016912D01*
Y8751990D01*
D02*
G37*
G36*
X6798010Y8433810D02*
X6702987D01*
Y8483861D01*
X6798010D01*
Y8433810D01*
D02*
G37*
G36*
Y8316970D02*
X6702913D01*
Y8366912D01*
X6798010D01*
Y8316970D01*
D02*
G37*
G36*
X7033861Y7951990D02*
X6983810D01*
Y8047013D01*
X7033861D01*
Y7951990D01*
D02*
G37*
G36*
X6916912D02*
X6866970D01*
Y8047087D01*
X6916912D01*
Y7951990D01*
D02*
G37*
G36*
X7813010Y7568810D02*
X7717987D01*
Y7618861D01*
X7813010D01*
Y7568810D01*
D02*
G37*
G36*
X8098010Y7553810D02*
X8002987D01*
Y7603861D01*
X8098010D01*
Y7553810D01*
D02*
G37*
G36*
X7813010Y7451970D02*
X7717913D01*
Y7501912D01*
X7813010D01*
Y7451970D01*
D02*
G37*
G36*
X8098010Y7436970D02*
X8002913D01*
Y7486912D01*
X8098010D01*
Y7436970D01*
D02*
G37*
G36*
X7318861Y7151990D02*
X7268810D01*
Y7247013D01*
X7318861D01*
Y7151990D01*
D02*
G37*
G36*
X7201912D02*
X7151970D01*
Y7247087D01*
X7201912D01*
Y7151990D01*
D02*
G37*
G36*
X8097087Y6983088D02*
X8001990D01*
Y7033030D01*
X8097087D01*
Y6983088D01*
D02*
G37*
G36*
X6847087Y6883088D02*
X6751990D01*
Y6933030D01*
X6847087D01*
Y6883088D01*
D02*
G37*
G36*
X8097013Y6866139D02*
X8001990D01*
Y6916190D01*
X8097013D01*
Y6866139D01*
D02*
G37*
G36*
X6847013Y6766139D02*
X6751990D01*
Y6816190D01*
X6847013D01*
Y6766139D01*
D02*
G37*
G36*
X8666970Y6547087D02*
X8716912D01*
Y6451990D01*
X8666970D01*
Y6547087D01*
D02*
G37*
G36*
X8783810Y6547013D02*
X8833861D01*
Y6451990D01*
X8783810D01*
Y6547013D01*
D02*
G37*
G36*
X9016970Y6547087D02*
X9066912D01*
Y6451990D01*
X9016970D01*
Y6547087D01*
D02*
G37*
G36*
X9133810Y6547013D02*
X9183861D01*
Y6451990D01*
X9133810D01*
Y6547013D01*
D02*
G37*
G36*
X9816190Y6352987D02*
X9766139D01*
Y6448010D01*
X9816190D01*
Y6352987D01*
D02*
G37*
G36*
X10597013Y5766190D02*
Y5716140D01*
X10501990D01*
Y5766190D01*
X10597013D01*
D02*
G37*
G36*
X10597087Y5883030D02*
Y5833088D01*
X10501990D01*
Y5883030D01*
X10597087D01*
D02*
G37*
G36*
X9933030Y6352913D02*
X9883088D01*
Y6448010D01*
X9933030D01*
Y6352913D01*
D02*
G37*
G36*
X10747013Y6631190D02*
Y6581139D01*
X10651990D01*
Y6631190D01*
X10747013D01*
D02*
G37*
G36*
X9202913Y7516970D02*
Y7566912D01*
X9298010D01*
Y7516970D01*
X9202913D01*
D02*
G37*
G36*
X9202987Y7633810D02*
Y7683861D01*
X9298010D01*
Y7633810D01*
X9202987D01*
D02*
G37*
G36*
X10501190Y6952987D02*
X10451139D01*
Y7048010D01*
X10501190D01*
Y6952987D01*
D02*
G37*
G36*
X10747087Y6748030D02*
Y6698088D01*
X10651990D01*
Y6748030D01*
X10747087D01*
D02*
G37*
G36*
X10618030Y6952913D02*
X10568088D01*
Y7048010D01*
X10618030D01*
Y6952913D01*
D02*
G37*
G36*
X8316190Y7702987D02*
X8266139D01*
Y7798010D01*
X8316190D01*
Y7702987D01*
D02*
G37*
G36*
X8433030Y7702913D02*
X8383088D01*
Y7798010D01*
X8433030D01*
Y7702913D01*
D02*
G37*
G36*
X8981970Y9247086D02*
X9031912D01*
Y9151990D01*
X8981970D01*
Y9247086D01*
D02*
G37*
G36*
X9098810Y9247012D02*
X9148860D01*
Y9151990D01*
X9098810D01*
Y9247012D01*
D02*
G37*
D40*
X7450000Y4710000D02*
Y5490000D01*
Y4710000D02*
X8950000D01*
Y5490000D01*
X7450000D02*
X8950000D01*
X10099300Y8346800D02*
Y8956400D01*
X9108700D02*
X10099300D01*
X9108700Y8346800D02*
Y8956400D01*
Y8346800D02*
X10099300D01*
X11545000Y7015000D02*
Y7875000D01*
X11030000Y7040500D02*
X11603000D01*
Y7849500D01*
X11030000D02*
X11603000D01*
X11030000Y7040500D02*
Y7849500D01*
X10402500Y6562500D02*
X10497500D01*
Y6737500D01*
X10402500D02*
X10497500D01*
X10402500Y6562500D02*
Y6737500D01*
X9574750Y5975250D02*
X10225250D01*
X9574750Y5624750D02*
Y5975250D01*
Y5624750D02*
X10225250D01*
Y5975250D01*
X7042500Y6697500D02*
Y6962500D01*
Y6697500D02*
X7377500D01*
Y6962500D01*
X7042500D02*
X7377500D01*
D44*
X8410000Y7475000D02*
G03*
X8410000Y7475000I-50000J0D01*
G01*
X8270000Y6855000D02*
X8980000D01*
X8270000Y7565000D02*
X8980000D01*
Y6855000D02*
Y7565000D01*
X8270000Y6855000D02*
Y7565000D01*
X6975000Y8197500D02*
Y8597500D01*
X7375000D01*
Y8197500D02*
Y8597500D01*
X6975000Y8197500D02*
X7375000D01*
D45*
X7808200Y7499400D02*
Y7570600D01*
X7723100Y7499400D02*
Y7570600D01*
X7364400Y8756800D02*
X7435600D01*
X7364400Y8841900D02*
X7435600D01*
X9293200Y7564400D02*
Y7635600D01*
X9208100Y7564400D02*
Y7635600D01*
X7199400Y7156800D02*
X7270600D01*
X7199400Y7241900D02*
X7270600D01*
X8006800Y6914400D02*
Y6985600D01*
X8091900Y6914400D02*
Y6985600D01*
X9064400Y6456800D02*
X9135600D01*
X9064400Y6541900D02*
X9135600D01*
X8314400Y7793200D02*
X8385600D01*
X8314400Y7708100D02*
X8385600D01*
X8093200Y7484400D02*
Y7555600D01*
X8008100Y7484400D02*
Y7555600D01*
X10506800Y5764400D02*
Y5835600D01*
X10591900Y5764400D02*
Y5835600D01*
X9814400Y6443200D02*
X9885600D01*
X9814400Y6358100D02*
X9885600D01*
X10499400Y7043200D02*
X10570600D01*
X10499400Y6958100D02*
X10570600D01*
X10656800Y6629400D02*
Y6700600D01*
X10741900Y6629400D02*
Y6700600D01*
X6914400Y7956800D02*
X6985600D01*
X6914400Y8041900D02*
X6985600D01*
X6793200Y8364400D02*
Y8435600D01*
X6708100Y8364400D02*
Y8435600D01*
X7014400Y8756800D02*
X7085600D01*
X7014400Y8841900D02*
X7085600D01*
X6756800Y6814400D02*
Y6885600D01*
X6841900Y6814400D02*
Y6885600D01*
X8714400Y6456800D02*
X8785600D01*
X8714400Y6541900D02*
X8785600D01*
X9029400Y9156800D02*
X9100600D01*
X9029400Y9241900D02*
X9100600D01*
%TF.MD5,511c3d4c10b8b9b57f0d1ad837e358b7*%
M02*
