%TF.GenerationSoftware,Altium Limited,Altium Designer,26.9.1 (10)*%
G04 Layer_Color=65535*
G04 Board_Origin=0|0*
%FSLAX45Y45*%
%MOMM*%
%TF.SameCoordinates,37759D03-2DEC-416C-86D4-F72473D3A6F1*%
%TF.FilePolarity,Positive*%
%TF.FileFunction,Legend,Top*%
%TF.Part,Single*%
G01*
G75*
%TA.AperFunction,NonConductor*%
%ADD38C,0.25000*%
%ADD39C,0.12700*%
%ADD40C,0.20000*%
%ADD41C,0.25400*%
D38*
X7837500Y5847500D02*
G03*
X7837500Y5847500I-12500J0D01*
G01*
X9743500Y9042600D02*
G03*
X9743500Y9042600I-12500J0D01*
G01*
X10992500Y7312500D02*
G03*
X10992500Y7312500I-12500J0D01*
G01*
X8202500Y7565000D02*
G03*
X8202500Y7565000I-12500J0D01*
G01*
X7482500Y8272500D02*
G03*
X7482500Y8272500I-12500J0D01*
G01*
X10262500Y6129500D02*
G03*
X10262500Y6129500I-12500J0D01*
G01*
X7125000Y6640000D02*
G03*
X7125000Y6640000I-12500J0D01*
G01*
D39*
X7810000Y7520000D02*
Y7550000D01*
X7720000Y7520000D02*
Y7550000D01*
X7385000Y8755000D02*
X7415000D01*
X7385000Y8845000D02*
X7415000D01*
X9295000Y7585000D02*
Y7615000D01*
X9205000Y7585000D02*
Y7615000D01*
X7220000Y7155000D02*
X7250000D01*
X7220000Y7245000D02*
X7250000D01*
X8005000Y6935000D02*
Y6965000D01*
X8095000Y6935000D02*
Y6965000D01*
X9085000Y6455000D02*
X9115000D01*
X9085000Y6545000D02*
X9115000D01*
X8335000Y7795000D02*
X8365000D01*
X8335000Y7705000D02*
X8365000D01*
X8095000Y7505000D02*
Y7535000D01*
X8005000Y7505000D02*
Y7535000D01*
X10505000Y5785000D02*
Y5815000D01*
X10595000Y5785000D02*
Y5815000D01*
X9835000Y6445000D02*
X9865000D01*
X9835000Y6355000D02*
X9865000D01*
X10520000Y7045000D02*
X10550000D01*
X10520000Y6955000D02*
X10550000D01*
X10655000Y6650000D02*
Y6680000D01*
X10745000Y6650000D02*
Y6680000D01*
X6935000Y7955000D02*
X6965000D01*
X6935000Y8045000D02*
X6965000D01*
X6795000Y8385000D02*
Y8415000D01*
X6705000Y8385000D02*
Y8415000D01*
X7035000Y8755000D02*
X7065000D01*
X7035000Y8845000D02*
X7065000D01*
X6755000Y6835000D02*
Y6865000D01*
X6845000Y6835000D02*
Y6865000D01*
X8735000Y6455000D02*
X8765000D01*
X8735000Y6545000D02*
X8765000D01*
X9050000Y9155000D02*
X9080000D01*
X9050000Y9245000D02*
X9080000D01*
D40*
X7450000Y5117500D02*
Y5490000D01*
X7632500Y4710000D02*
X8767500D01*
X8950000Y5117500D02*
Y5490000D01*
X8677500D02*
X8950000D01*
X7450000D02*
X7722500D01*
X10099300Y8346800D02*
Y8956400D01*
X9108700D02*
X10099300D01*
X9108700Y8346800D02*
Y8956400D01*
Y8346800D02*
X10099300D01*
X8623800Y8804000D02*
X8700000D01*
X8623800Y8296000D02*
Y8804000D01*
Y8296000D02*
X8776200D01*
Y8804000D01*
X8700000D02*
X8776200D01*
X8700000Y8273140D02*
Y8296000D01*
Y8804000D02*
Y8826860D01*
X8223800Y8804000D02*
X8300000D01*
X8223800Y8296000D02*
Y8804000D01*
Y8296000D02*
X8376200D01*
Y8804000D01*
X8300000D02*
X8376200D01*
X8300000Y8273140D02*
Y8296000D01*
Y8804000D02*
Y8826860D01*
X8500000Y8296000D02*
X8576200D01*
Y8804000D01*
X8423800D02*
X8576200D01*
X8423800Y8296000D02*
Y8804000D01*
Y8296000D02*
X8500000D01*
Y8804000D02*
Y8826860D01*
Y8273140D02*
Y8296000D01*
X11030000Y7040500D02*
X11297500D01*
X11030000Y7849500D02*
X11297500D01*
X11030000Y7802500D02*
Y7849500D01*
Y7040500D02*
Y7087500D01*
X7750000Y6546000D02*
X7826200D01*
Y7054000D01*
X7673800D02*
X7826200D01*
X7673800Y6546000D02*
Y7054000D01*
Y6546000D02*
X7750000D01*
Y7054000D02*
Y7076860D01*
Y6523140D02*
Y6546000D01*
X8255000Y6840000D02*
X8297500D01*
X8255000D02*
Y6882500D01*
X8952500Y6840000D02*
X8995000D01*
Y6882500D01*
Y7537500D02*
Y7580000D01*
X8952500D02*
X8995000D01*
X8255000D02*
X8297500D01*
X8255000Y7537500D02*
Y7580000D01*
X10735000Y5355000D02*
X10995000D01*
X11040000Y4990000D02*
Y5310000D01*
X9990000Y4945000D02*
Y5355000D01*
Y4945000D02*
X10260000D01*
X9990000Y5355000D02*
X10260000D01*
X10995000Y5355500D02*
X11040000Y5310000D01*
X10995000Y4945000D02*
X11040000Y4990000D01*
X10735000Y4945000D02*
X10995000D01*
X6960000Y8182500D02*
X6992500D01*
X6960000D02*
Y8215000D01*
Y8580000D02*
Y8612500D01*
X6992500D01*
X7357500D02*
X7390000D01*
Y8580000D02*
Y8612500D01*
X7357500Y8182500D02*
X7390000D01*
Y8215000D01*
X10530000Y6562500D02*
Y6737500D01*
X10370000Y6562500D02*
Y6737500D01*
X9574750Y5975250D02*
X10225250D01*
X9574750Y5624750D02*
Y5975250D01*
Y5624750D02*
X10225250D01*
Y5975250D01*
X10900000Y5696000D02*
X10976200D01*
Y6204000D01*
X10823800D02*
X10976200D01*
X10823800Y5696000D02*
Y6204000D01*
Y5696000D02*
X10900000D01*
Y6204000D02*
Y6226860D01*
Y5673140D02*
Y5696000D01*
X6980000Y6710000D02*
Y6950000D01*
X7440000Y6710000D02*
Y6950000D01*
X9887500Y7055000D02*
X10147500D01*
X10192500Y6690000D02*
Y7010000D01*
X9142500Y6645000D02*
Y7055000D01*
Y6645000D02*
X9412500D01*
X9142500Y7055000D02*
X9412500D01*
X10147500Y7055500D02*
X10192500Y7010000D01*
X10147500Y6645000D02*
X10192500Y6690000D01*
X9887500Y6645000D02*
X10147500D01*
X9173800Y6154000D02*
X9250000D01*
X9173800Y5646000D02*
Y6154000D01*
Y5646000D02*
X9326200D01*
Y6154000D01*
X9250000D02*
X9326200D01*
X9250000Y5623140D02*
Y5646000D01*
Y6154000D02*
Y6176860D01*
X10204000Y9200000D02*
Y9276200D01*
X9696000D02*
X10204000D01*
X9696000Y9123800D02*
Y9276200D01*
Y9123800D02*
X10204000D01*
Y9200000D01*
X9673140D02*
X9696000D01*
X10204000D02*
X10226860D01*
D41*
X11125400Y6927751D02*
Y6800792D01*
X11150792Y6775400D01*
X11201575D01*
X11226967Y6800792D01*
Y6927751D01*
X11379318Y6902359D02*
X11353926Y6927751D01*
X11303142D01*
X11277751Y6902359D01*
Y6876967D01*
X11303142Y6851575D01*
X11353926D01*
X11379318Y6826183D01*
Y6800792D01*
X11353926Y6775400D01*
X11303142D01*
X11277751Y6800792D01*
X11430101Y6927751D02*
Y6775400D01*
X11506277D01*
X11531669Y6800792D01*
Y6826183D01*
X11506277Y6851575D01*
X11430101D01*
X11506277D01*
X11531669Y6876967D01*
Y6902359D01*
X11506277Y6927751D01*
X11430101D01*
X9526967Y8252359D02*
X9501576Y8277751D01*
X9450792D01*
X9425400Y8252359D01*
Y8226967D01*
X9450792Y8201575D01*
X9501576D01*
X9526967Y8176184D01*
Y8150792D01*
X9501576Y8125400D01*
X9450792D01*
X9425400Y8150792D01*
X9577751Y8277751D02*
Y8125400D01*
X9628534Y8176184D01*
X9679318Y8125400D01*
Y8277751D01*
X9730102D02*
Y8125400D01*
X9806277D01*
X9831669Y8150792D01*
Y8252359D01*
X9806277Y8277751D01*
X9730102D01*
X10775400Y8777751D02*
Y8752359D01*
X10826184Y8701575D01*
X10876967Y8752359D01*
Y8777751D01*
X10826184Y8701575D02*
Y8625400D01*
X10927751Y8777751D02*
Y8625400D01*
X10978534Y8676184D01*
X11029318Y8625400D01*
Y8777751D01*
X11181669Y8752359D02*
X11156277Y8777751D01*
X11105493D01*
X11080102Y8752359D01*
Y8726967D01*
X11105493Y8701575D01*
X11156277D01*
X11181669Y8676184D01*
Y8650792D01*
X11156277Y8625400D01*
X11105493D01*
X11080102Y8650792D01*
X11232452Y8625400D02*
Y8777751D01*
X11283236Y8726967D01*
X11334019Y8777751D01*
Y8625400D01*
X8076967Y5952359D02*
X8051575Y5977751D01*
X8000792D01*
X7975400Y5952359D01*
Y5850792D01*
X8000792Y5825400D01*
X8051575D01*
X8076967Y5850792D01*
Y5901575D01*
X8026184D01*
X8127751Y5825400D02*
Y5977751D01*
X8203926D01*
X8229318Y5952359D01*
Y5901575D01*
X8203926Y5876184D01*
X8127751D01*
X8280102Y5977751D02*
X8330885D01*
X8305493D01*
Y5825400D01*
X8280102D01*
X8330885D01*
X8483236Y5977751D02*
X8432452D01*
X8407060Y5952359D01*
Y5850792D01*
X8432452Y5825400D01*
X8483236D01*
X8508628Y5850792D01*
Y5952359D01*
X8483236Y5977751D01*
X7810467Y7906979D02*
X7785075Y7932371D01*
X7734292D01*
X7708900Y7906979D01*
Y7805412D01*
X7734292Y7780020D01*
X7785075D01*
X7810467Y7805412D01*
X7861251Y7780020D02*
X7912034D01*
X7886643D01*
Y7932371D01*
X7861251Y7906979D01*
X7988210D02*
X8013601Y7932371D01*
X8064385D01*
X8089777Y7906979D01*
Y7881587D01*
X8064385Y7856195D01*
X8089777Y7830803D01*
Y7805412D01*
X8064385Y7780020D01*
X8013601D01*
X7988210Y7805412D01*
Y7830803D01*
X8013601Y7856195D01*
X7988210Y7881587D01*
Y7906979D01*
X8013601Y7856195D02*
X8064385D01*
X7520907Y6101031D02*
X7470123D01*
X7495515D01*
Y5974072D01*
X7470123Y5948680D01*
X7444732D01*
X7419340Y5974072D01*
X7571691Y6075639D02*
X7597083Y6101031D01*
X7647866D01*
X7673258Y6075639D01*
Y6050247D01*
X7647866Y6024855D01*
X7622474D01*
X7647866D01*
X7673258Y5999463D01*
Y5974072D01*
X7647866Y5948680D01*
X7597083D01*
X7571691Y5974072D01*
X7358347Y9082999D02*
X7332955Y9108391D01*
X7282172D01*
X7256780Y9082999D01*
Y8981432D01*
X7282172Y8956040D01*
X7332955D01*
X7358347Y8981432D01*
X7409131Y8956040D02*
X7459914D01*
X7434523D01*
Y9108391D01*
X7409131Y9082999D01*
X7536090D02*
X7561481Y9108391D01*
X7612265D01*
X7637657Y9082999D01*
Y8981432D01*
X7612265Y8956040D01*
X7561481D01*
X7536090Y8981432D01*
Y9082999D01*
X9215087Y9296351D02*
X9164303D01*
X9189695D01*
Y9169392D01*
X9164303Y9144000D01*
X9138912D01*
X9113520Y9169392D01*
X9367438Y9144000D02*
X9265871D01*
X9367438Y9245567D01*
Y9270959D01*
X9342046Y9296351D01*
X9291263D01*
X9265871Y9270959D01*
X8638540Y9077960D02*
Y9230311D01*
X8714715D01*
X8740107Y9204919D01*
Y9154135D01*
X8714715Y9128743D01*
X8638540D01*
X8689323D02*
X8740107Y9077960D01*
X8867066D02*
Y9230311D01*
X8790891Y9154135D01*
X8892458D01*
X8239760Y9077960D02*
Y9230311D01*
X8315935D01*
X8341327Y9204919D01*
Y9154135D01*
X8315935Y9128743D01*
X8239760D01*
X8290543D02*
X8341327Y9077960D01*
X8493678Y9230311D02*
X8392111D01*
Y9154135D01*
X8442894Y9179527D01*
X8468286D01*
X8493678Y9154135D01*
Y9103352D01*
X8468286Y9077960D01*
X8417503D01*
X8392111Y9103352D01*
X8440420Y9077960D02*
Y9230311D01*
X8516595D01*
X8541987Y9204919D01*
Y9154135D01*
X8516595Y9128743D01*
X8440420D01*
X8491203D02*
X8541987Y9077960D01*
X8592771D02*
X8643554D01*
X8618163D01*
Y9230311D01*
X8592771Y9204919D01*
X9296367Y7973019D02*
X9270975Y7998411D01*
X9220192D01*
X9194800Y7973019D01*
Y7871452D01*
X9220192Y7846060D01*
X9270975D01*
X9296367Y7871452D01*
X9448718Y7998411D02*
X9397934Y7973019D01*
X9347151Y7922235D01*
Y7871452D01*
X9372543Y7846060D01*
X9423326D01*
X9448718Y7871452D01*
Y7896843D01*
X9423326Y7922235D01*
X9347151D01*
X11081987Y8112711D02*
X11031203D01*
X11056595D01*
Y7985752D01*
X11031203Y7960360D01*
X11005812D01*
X10980420Y7985752D01*
X11132771Y7960360D02*
X11183554D01*
X11158163D01*
Y8112711D01*
X11132771Y8087319D01*
X7688580Y7327900D02*
Y7480251D01*
X7764755D01*
X7790147Y7454859D01*
Y7404075D01*
X7764755Y7378683D01*
X7688580D01*
X7739363D02*
X7790147Y7327900D01*
X7840931Y7480251D02*
X7942498D01*
Y7454859D01*
X7840931Y7353292D01*
Y7327900D01*
X7193247Y7482799D02*
X7167855Y7508191D01*
X7117072D01*
X7091680Y7482799D01*
Y7381232D01*
X7117072Y7355840D01*
X7167855D01*
X7193247Y7381232D01*
X7244031Y7355840D02*
X7294814D01*
X7269423D01*
Y7508191D01*
X7244031Y7482799D01*
X8191500Y7830771D02*
Y7703812D01*
X8216892Y7678420D01*
X8267675D01*
X8293067Y7703812D01*
Y7830771D01*
X8445418Y7678420D02*
X8343851D01*
X8445418Y7779987D01*
Y7805379D01*
X8420026Y7830771D01*
X8369243D01*
X8343851Y7805379D01*
X8094947Y7322779D02*
X8069555Y7348171D01*
X8018772D01*
X7993380Y7322779D01*
Y7221212D01*
X8018772Y7195820D01*
X8069555D01*
X8094947Y7221212D01*
X8221906Y7195820D02*
Y7348171D01*
X8145731Y7271995D01*
X8247298D01*
X9057607Y6784299D02*
X9032215Y6809691D01*
X8981432D01*
X8956040Y6784299D01*
Y6682732D01*
X8981432Y6657340D01*
X9032215D01*
X9057607Y6682732D01*
X9209958Y6809691D02*
X9108391D01*
Y6733515D01*
X9159174Y6758907D01*
X9184566D01*
X9209958Y6733515D01*
Y6682732D01*
X9184566Y6657340D01*
X9133783D01*
X9108391Y6682732D01*
X8308307Y8033979D02*
X8282915Y8059371D01*
X8232132D01*
X8206740Y8033979D01*
Y7932412D01*
X8232132Y7907020D01*
X8282915D01*
X8308307Y7932412D01*
X8359091Y8059371D02*
X8460658D01*
Y8033979D01*
X8359091Y7932412D01*
Y7907020D01*
X8094947Y7891739D02*
X8069555Y7917131D01*
X8018772D01*
X7993380Y7891739D01*
Y7790172D01*
X8018772Y7764780D01*
X8069555D01*
X8094947Y7790172D01*
X8145731Y7891739D02*
X8171123Y7917131D01*
X8221906D01*
X8247298Y7891739D01*
Y7866347D01*
X8221906Y7840955D01*
X8196514D01*
X8221906D01*
X8247298Y7815563D01*
Y7790172D01*
X8221906Y7764780D01*
X8171123D01*
X8145731Y7790172D01*
X10005060Y5593031D02*
Y5440680D01*
X10081235D01*
X10106627Y5466072D01*
Y5567639D01*
X10081235Y5593031D01*
X10005060D01*
X10258978Y5440680D02*
X10157411D01*
X10258978Y5542247D01*
Y5567639D01*
X10233586Y5593031D01*
X10182803D01*
X10157411Y5567639D01*
X6946900Y8879791D02*
Y8752832D01*
X6972292Y8727440D01*
X7023075D01*
X7048467Y8752832D01*
Y8879791D01*
X7099251Y8854399D02*
X7124643Y8879791D01*
X7175426D01*
X7200818Y8854399D01*
Y8829007D01*
X7175426Y8803615D01*
X7150034D01*
X7175426D01*
X7200818Y8778223D01*
Y8752832D01*
X7175426Y8727440D01*
X7124643D01*
X7099251Y8752832D01*
X10487627Y6997651D02*
X10386060D01*
Y6921475D01*
X10436843D01*
X10386060D01*
Y6845300D01*
X10538411Y6997651D02*
Y6845300D01*
X10614586D01*
X10639978Y6870692D01*
Y6896083D01*
X10614586Y6921475D01*
X10538411D01*
X10614586D01*
X10639978Y6946867D01*
Y6972259D01*
X10614586Y6997651D01*
X10538411D01*
X10690761Y6972259D02*
X10716153Y6997651D01*
X10766937D01*
X10792329Y6972259D01*
Y6946867D01*
X10741545Y6896083D01*
Y6870692D02*
Y6845300D01*
X9580880Y6428691D02*
Y6301732D01*
X9606272Y6276340D01*
X9657055D01*
X9682447Y6301732D01*
Y6428691D01*
X9733231Y6276340D02*
X9784014D01*
X9758623D01*
Y6428691D01*
X9733231Y6403299D01*
X10838180Y6477000D02*
Y6629351D01*
X10914355D01*
X10939747Y6603959D01*
Y6553175D01*
X10914355Y6527783D01*
X10838180D01*
X10888963D02*
X10939747Y6477000D01*
X11092098Y6629351D02*
X11041314Y6603959D01*
X10990531Y6553175D01*
Y6502392D01*
X11015923Y6477000D01*
X11066706D01*
X11092098Y6502392D01*
Y6527783D01*
X11066706Y6553175D01*
X10990531D01*
X10596847Y6172159D02*
X10571455Y6197551D01*
X10520672D01*
X10495280Y6172159D01*
Y6070592D01*
X10520672Y6045200D01*
X10571455D01*
X10596847Y6070592D01*
X10647631Y6045200D02*
X10698414D01*
X10673023D01*
Y6197551D01*
X10647631Y6172159D01*
X10774590Y6197551D02*
X10876157D01*
Y6172159D01*
X10774590Y6070592D01*
Y6045200D01*
X9806907Y6685239D02*
X9781515Y6710631D01*
X9730732D01*
X9705340Y6685239D01*
Y6583672D01*
X9730732Y6558280D01*
X9781515D01*
X9806907Y6583672D01*
X9857691Y6558280D02*
X9908474D01*
X9883083D01*
Y6710631D01*
X9857691Y6685239D01*
X10086217Y6710631D02*
X10035433Y6685239D01*
X9984650Y6634455D01*
Y6583672D01*
X10010041Y6558280D01*
X10060825D01*
X10086217Y6583672D01*
Y6609063D01*
X10060825Y6634455D01*
X9984650D01*
X10492707Y7284679D02*
X10467315Y7310071D01*
X10416532D01*
X10391140Y7284679D01*
Y7183112D01*
X10416532Y7157720D01*
X10467315D01*
X10492707Y7183112D01*
X10543491Y7157720D02*
X10594274D01*
X10568883D01*
Y7310071D01*
X10543491Y7284679D01*
X10772017Y7310071D02*
X10670450D01*
Y7233895D01*
X10721233Y7259287D01*
X10746625D01*
X10772017Y7233895D01*
Y7183112D01*
X10746625Y7157720D01*
X10695841D01*
X10670450Y7183112D01*
X10746707Y7038299D02*
X10721315Y7063691D01*
X10670532D01*
X10645140Y7038299D01*
Y6936732D01*
X10670532Y6911340D01*
X10721315D01*
X10746707Y6936732D01*
X10797491Y6911340D02*
X10848274D01*
X10822883D01*
Y7063691D01*
X10797491Y7038299D01*
X11000625Y6911340D02*
Y7063691D01*
X10924450Y6987515D01*
X11026017D01*
X6906227Y8282899D02*
X6880835Y8308291D01*
X6830052D01*
X6804660Y8282899D01*
Y8181332D01*
X6830052Y8155940D01*
X6880835D01*
X6906227Y8181332D01*
X6957011Y8155940D02*
X7007794D01*
X6982403D01*
Y8308291D01*
X6957011Y8282899D01*
X7083970D02*
X7109361Y8308291D01*
X7160145D01*
X7185537Y8282899D01*
Y8257507D01*
X7160145Y8232115D01*
X7134753D01*
X7160145D01*
X7185537Y8206723D01*
Y8181332D01*
X7160145Y8155940D01*
X7109361D01*
X7083970Y8181332D01*
X6797007Y8773119D02*
X6771615Y8798511D01*
X6720832D01*
X6695440Y8773119D01*
Y8671552D01*
X6720832Y8646160D01*
X6771615D01*
X6797007Y8671552D01*
X6847791Y8646160D02*
X6898574D01*
X6873183D01*
Y8798511D01*
X6847791Y8773119D01*
X7076317Y8646160D02*
X6974750D01*
X7076317Y8747727D01*
Y8773119D01*
X7050925Y8798511D01*
X7000141D01*
X6974750Y8773119D01*
X7007827Y9082999D02*
X6982435Y9108391D01*
X6931652D01*
X6906260Y9082999D01*
Y8981432D01*
X6931652Y8956040D01*
X6982435D01*
X7007827Y8981432D01*
X7058611Y8956040D02*
X7109394D01*
X7084003D01*
Y9108391D01*
X7058611Y9082999D01*
X7185570Y8956040D02*
X7236353D01*
X7210961D01*
Y9108391D01*
X7185570Y9082999D01*
X6995160Y7216091D02*
Y7190699D01*
X7045943Y7139915D01*
X7096727Y7190699D01*
Y7216091D01*
X7045943Y7139915D02*
Y7063740D01*
X7147511D02*
X7198294D01*
X7172903D01*
Y7216091D01*
X7147511Y7190699D01*
X9156700Y7294831D02*
Y7142480D01*
X9232875D01*
X9258267Y7167872D01*
Y7269439D01*
X9232875Y7294831D01*
X9156700D01*
X9309051Y7142480D02*
X9359834D01*
X9334443D01*
Y7294831D01*
X9309051Y7269439D01*
X9189720Y6426200D02*
Y6578551D01*
X9265895D01*
X9291287Y6553159D01*
Y6502375D01*
X9265895Y6476983D01*
X9189720D01*
X9240503D02*
X9291287Y6426200D01*
X9342071Y6553159D02*
X9367463Y6578551D01*
X9418246D01*
X9443638Y6553159D01*
Y6527767D01*
X9418246Y6502375D01*
X9392854D01*
X9418246D01*
X9443638Y6476983D01*
Y6451592D01*
X9418246Y6426200D01*
X9367463D01*
X9342071Y6451592D01*
X9525000Y9362440D02*
Y9514791D01*
X9601175D01*
X9626567Y9489399D01*
Y9438615D01*
X9601175Y9413223D01*
X9525000D01*
X9575783D02*
X9626567Y9362440D01*
X9778918D02*
X9677351D01*
X9778918Y9464007D01*
Y9489399D01*
X9753526Y9514791D01*
X9702743D01*
X9677351Y9489399D01*
X6845267Y7223719D02*
X6819875Y7249111D01*
X6769092D01*
X6743700Y7223719D01*
Y7122152D01*
X6769092Y7096760D01*
X6819875D01*
X6845267Y7122152D01*
X6997618Y7096760D02*
X6896051D01*
X6997618Y7198327D01*
Y7223719D01*
X6972226Y7249111D01*
X6921443D01*
X6896051Y7223719D01*
X8707087Y6784299D02*
X8681695Y6809691D01*
X8630912D01*
X8605520Y6784299D01*
Y6682732D01*
X8630912Y6657340D01*
X8681695D01*
X8707087Y6682732D01*
X8757871Y6784299D02*
X8783263Y6809691D01*
X8834046D01*
X8859438Y6784299D01*
Y6758907D01*
X8834046Y6733515D01*
X8859438Y6708123D01*
Y6682732D01*
X8834046Y6657340D01*
X8783263D01*
X8757871Y6682732D01*
Y6708123D01*
X8783263Y6733515D01*
X8757871Y6758907D01*
Y6784299D01*
X8783263Y6733515D02*
X8834046D01*
X9022047Y9484319D02*
X8996655Y9509711D01*
X8945872D01*
X8920480Y9484319D01*
Y9382752D01*
X8945872Y9357360D01*
X8996655D01*
X9022047Y9382752D01*
X9072831D02*
X9098223Y9357360D01*
X9149006D01*
X9174398Y9382752D01*
Y9484319D01*
X9149006Y9509711D01*
X9098223D01*
X9072831Y9484319D01*
Y9458927D01*
X9098223Y9433535D01*
X9174398D01*
%TF.MD5,6f00aa571944821c7bd47cde69e3cbfc*%
M02*
