%TF.GenerationSoftware,Altium Limited,Altium Designer,26.9.1 (10)*%
G04 Layer_Color=128*
G04 Board_Origin=0|0*
%FSLAX45Y45*%
%MOMM*%
%TF.SameCoordinates,37759D03-2DEC-416C-86D4-F72473D3A6F1*%
%TF.FilePolarity,Positive*%
%TF.FileFunction,Drillmap*%
%TF.Part,Single*%
G01*
G75*
%TA.AperFunction,NonConductor*%
%ADD39C,0.12700*%
D39*
X10857500Y6331000D02*
X10942500D01*
X10900000Y6288500D02*
Y6373500D01*
X8457500Y8931000D02*
X8542500D01*
X8500000Y8888500D02*
Y8973500D01*
X9300450Y8753200D02*
X9399550D01*
X9350000Y8703650D02*
Y8802749D01*
X9300450Y8550000D02*
X9399550D01*
X9350000Y8500450D02*
Y8599549D01*
X9808450Y8651600D02*
X9907550D01*
X9858000Y8602050D02*
Y8701149D01*
X9526500Y9200000D02*
X9611500D01*
X9569000Y9157500D02*
Y9242500D01*
X8657500Y8931000D02*
X8742500D01*
X8700000Y8888500D02*
Y8973500D01*
X8657500Y8169000D02*
X8742500D01*
X8700000Y8126500D02*
Y8211500D01*
X8257500Y8931000D02*
X8342500D01*
X8300000Y8888500D02*
Y8973500D01*
X8257500Y8169000D02*
X8342500D01*
X8300000Y8126500D02*
Y8211500D01*
X8457500Y8169000D02*
X8542500D01*
X8500000Y8126500D02*
Y8211500D01*
X10288500Y9200000D02*
X10373500D01*
X10331000Y9157500D02*
Y9242500D01*
X7707500Y6419000D02*
X7792500D01*
X7750000Y6376500D02*
Y6461500D01*
X7707500Y7181000D02*
X7792500D01*
X7750000Y7138500D02*
Y7223500D01*
X10857500Y5569000D02*
X10942500D01*
X10900000Y5526500D02*
Y5611500D01*
X9207500Y6281000D02*
X9292500D01*
X9250000Y6238500D02*
Y6323500D01*
X9207500Y5519000D02*
X9292500D01*
X9250000Y5476500D02*
Y5561500D01*
X8189865Y7835293D02*
X8219865D01*
X8204865Y7820293D02*
Y7850293D01*
X9289865Y7835293D02*
X9319865D01*
X9304865Y7820293D02*
Y7850293D01*
X10394260Y9056115D02*
X10424260D01*
X10409260Y9041115D02*
Y9071115D01*
X8842088Y9003943D02*
X8872088D01*
X8857088Y8988943D02*
Y9018943D01*
X10885000Y7600000D02*
X10915000D01*
X10900000Y7585000D02*
Y7615000D01*
X9573789Y8790662D02*
X9603789D01*
X9588789Y8775662D02*
Y8805662D01*
X9427500Y7707500D02*
X9457500D01*
X9442500Y7692500D02*
Y7722500D01*
X10585000Y7150000D02*
X10615000D01*
X10600000Y7135000D02*
Y7165000D01*
X8864929Y9118209D02*
X8894929D01*
X8879929Y9103209D02*
Y9133209D01*
X8610000Y7430000D02*
X8640000D01*
X8625000Y7415000D02*
Y7445000D01*
X8720000Y7430000D02*
X8750000D01*
X8735000Y7415000D02*
Y7445000D01*
X8830000Y7430000D02*
X8860000D01*
X8845000Y7415000D02*
Y7445000D01*
X8500000Y7320000D02*
X8530000D01*
X8515000Y7305000D02*
Y7335000D01*
X8830000Y7320000D02*
X8860000D01*
X8845000Y7305000D02*
Y7335000D01*
X8720000Y7210000D02*
X8750000D01*
X8735000Y7195000D02*
Y7225000D01*
X8720000Y7320000D02*
X8750000D01*
X8735000Y7305000D02*
Y7335000D01*
X8830000Y7210000D02*
X8860000D01*
X8845000Y7195000D02*
Y7225000D01*
X8720000Y7100000D02*
X8750000D01*
X8735000Y7085000D02*
Y7115000D01*
X8610000Y7320000D02*
X8640000D01*
X8625000Y7305000D02*
Y7335000D01*
X8610000Y7210000D02*
X8640000D01*
X8625000Y7195000D02*
Y7225000D01*
X8500000Y7210000D02*
X8530000D01*
X8515000Y7195000D02*
Y7225000D01*
X8610000Y7100000D02*
X8640000D01*
X8625000Y7085000D02*
Y7115000D01*
X8500000Y7100000D02*
X8530000D01*
X8515000Y7085000D02*
Y7115000D01*
X10785000Y6950000D02*
X10815000D01*
X10800000Y6935000D02*
Y6965000D01*
X10035000Y6400000D02*
X10065000D01*
X10050000Y6385000D02*
Y6415000D01*
X10535000Y6050000D02*
X10565000D01*
X10550000Y6035000D02*
Y6065000D01*
X10169962Y6302965D02*
X10199962D01*
X10184962Y6287965D02*
Y6317965D01*
X9091166Y4916376D02*
X9121166D01*
X9106166Y4901376D02*
Y4931376D01*
X8830000Y6990000D02*
X8860000D01*
X8845000Y6975000D02*
Y7005000D01*
X8830000Y7100000D02*
X8860000D01*
X8845000Y7085000D02*
Y7115000D01*
X8610000Y6990000D02*
X8640000D01*
X8625000Y6975000D02*
Y7005000D01*
X8500000Y6990000D02*
X8530000D01*
X8515000Y6975000D02*
Y7005000D01*
X8720000Y6990000D02*
X8750000D01*
X8735000Y6975000D02*
Y7005000D01*
X8985000Y6300000D02*
X9015000D01*
X9000000Y6285000D02*
Y6315000D01*
X8691381Y6341661D02*
X8721381D01*
X8706381Y6326661D02*
Y6356661D01*
X8477500Y9057500D02*
X8507500D01*
X8492500Y9042500D02*
Y9072500D01*
X8478169Y9044329D02*
X8508169D01*
X8493169Y9029329D02*
Y9059329D01*
X8474169Y9129229D02*
X8504169D01*
X8489169Y9114229D02*
Y9144229D01*
X7215000Y8452500D02*
X7245000D01*
X7230000Y8437500D02*
Y8467500D01*
X7215000Y8342500D02*
X7245000D01*
X7230000Y8327500D02*
Y8357500D01*
X7105000Y8452500D02*
X7135000D01*
X7120000Y8437500D02*
Y8467500D01*
X7105000Y8342500D02*
X7135000D01*
X7120000Y8327500D02*
Y8357500D01*
X6727500Y8007500D02*
X6757500D01*
X6742500Y7992500D02*
Y8022500D01*
X6627500Y8307500D02*
X6657500D01*
X6642500Y8292500D02*
Y8322500D01*
X8500000Y7430000D02*
X8530000D01*
X8515000Y7415000D02*
Y7445000D01*
X8390000Y7210000D02*
X8420000D01*
X8405000Y7195000D02*
Y7225000D01*
X8390000Y7430000D02*
X8420000D01*
X8405000Y7415000D02*
Y7445000D01*
X8390000Y7320000D02*
X8420000D01*
X8405000Y7305000D02*
Y7335000D01*
X8390000Y6990000D02*
X8420000D01*
X8405000Y6975000D02*
Y7005000D01*
X8390000Y7100000D02*
X8420000D01*
X8405000Y7085000D02*
Y7115000D01*
X7577500Y7457500D02*
X7607500D01*
X7592500Y7442500D02*
Y7472500D01*
X7105063Y7344260D02*
X7135063D01*
X7120063Y7329260D02*
Y7359260D01*
X6905063Y7094260D02*
X6935063D01*
X6920063Y7079260D02*
Y7109260D01*
X7277500Y6657500D02*
X7307500D01*
X7292500Y6642500D02*
Y6672500D01*
X6655063Y6944260D02*
X6685063D01*
X6670063Y6929260D02*
Y6959260D01*
X8125387Y5064529D02*
X8155387D01*
X8140387Y5049529D02*
Y5079529D01*
X9085000Y5250000D02*
X9115000D01*
X9100000Y5235000D02*
Y5265000D01*
X6642500Y9357500D02*
X6942500D01*
X6792500Y9207500D02*
Y9507500D01*
X6642500Y4807500D02*
X6942500D01*
X6792500Y4657500D02*
Y4957500D01*
X7527500Y8257500D02*
X7557500D01*
X7542500Y8242500D02*
Y8272500D01*
X8062855Y8042855D02*
X8092855D01*
X8077855Y8027855D02*
Y8057855D01*
X11092500Y4807500D02*
X11392500D01*
X11242500Y4657500D02*
Y4957500D01*
X11092500Y9307500D02*
X11392500D01*
X11242500Y9157500D02*
Y9457500D01*
X7977500Y6657500D02*
X8007500D01*
X7992500Y6642500D02*
Y6672500D01*
X7427500Y8057500D02*
X7457500D01*
X7442500Y8042500D02*
Y8072500D01*
X297500Y327500D02*
X327500D01*
X312500Y312500D02*
Y342500D01*
X8980816Y9010816D02*
X9010816D01*
X8995816Y8995816D02*
Y9025816D01*
X9527500Y9407500D02*
X9557500D01*
X9542500Y9392500D02*
Y9422500D01*
X9027500Y8157500D02*
X9057500D01*
X9042500Y8142500D02*
Y8172500D01*
X8677900Y7707500D02*
X8707900D01*
X8692900Y7692500D02*
Y7722500D01*
%TF.MD5,c3608d2fc8a1ff4056a9f8326ff3e10a*%
M02*
