%TF.GenerationSoftware,Altium Limited,Altium Designer,26.9.1 (10)*%
G04 Layer_Color=32768*
G04 Board_Origin=0|0*
%FSLAX45Y45*%
%MOMM*%
%TF.SameCoordinates,37759D03-2DEC-416C-86D4-F72473D3A6F1*%
%TF.FilePolarity,Positive*%
%TF.FileFunction,Other,Top_Courtyard*%
%TF.Part,Single*%
G01*
G75*
%TA.AperFunction,NonConductor*%
%ADD40C,0.20000*%
%ADD44C,0.10000*%
%ADD46C,0.05080*%
%ADD47C,0.05000*%
D40*
X7405000Y4680000D02*
Y5800000D01*
Y4680000D02*
X8995000D01*
Y5800000D01*
X7405000D02*
X8995000D01*
X10109300Y8336800D02*
Y8966400D01*
X9098700D02*
X10109300D01*
X9098700Y8336800D02*
Y8966400D01*
Y8336800D02*
X10109300D01*
X11020000Y7015000D02*
X11613000D01*
Y7875000D01*
X11020000D02*
X11613000D01*
X11020000Y7015000D02*
Y7875000D01*
X10392500Y6540000D02*
X10507500D01*
Y6760000D01*
X10392500D02*
X10507500D01*
X10392500Y6540000D02*
Y6760000D01*
X9564750Y6189715D02*
X10235250D01*
X9564750Y5410285D02*
Y6189715D01*
Y5410285D02*
X10235250D01*
Y6189715D01*
X7020000Y6682500D02*
Y6977500D01*
Y6682500D02*
X7400000D01*
Y6977500D01*
X7020000D02*
X7400000D01*
D44*
X8625000Y7160000D02*
Y7260000D01*
X8575000Y7210000D02*
X8675000D01*
X7175000Y8347500D02*
Y8447500D01*
X7125000Y8397500D02*
X7225000D01*
D46*
X7843300Y7367700D02*
Y7702300D01*
X7686700Y7367700D02*
X7843300D01*
X7686700D02*
Y7702300D01*
X7843300D01*
X7232700Y8721700D02*
X7567300D01*
X7232700D02*
Y8878300D01*
X7567300D01*
Y8721700D02*
Y8878300D01*
X9328300Y7432700D02*
Y7767300D01*
X9171700Y7432700D02*
X9328300D01*
X9171700D02*
Y7767300D01*
X9328300D01*
X7067700Y7121700D02*
X7402300D01*
X7067700D02*
Y7278300D01*
X7402300D01*
Y7121700D02*
Y7278300D01*
X7971700Y6782700D02*
Y7117300D01*
X8128300D01*
Y6782700D02*
Y7117300D01*
X7971700Y6782700D02*
X8128300D01*
X8932700Y6421700D02*
X9267300D01*
X8932700D02*
Y6578300D01*
X9267300D01*
Y6421700D02*
Y6578300D01*
X8182700Y7828300D02*
X8517300D01*
Y7671700D02*
Y7828300D01*
X8182700Y7671700D02*
X8517300D01*
X8182700D02*
Y7828300D01*
X8128300Y7352700D02*
Y7687300D01*
X7971700Y7352700D02*
X8128300D01*
X7971700D02*
Y7687300D01*
X8128300D01*
X10471700Y5632700D02*
Y5967300D01*
X10628300D01*
Y5632700D02*
Y5967300D01*
X10471700Y5632700D02*
X10628300D01*
X9682700Y6478300D02*
X10017300D01*
Y6321700D02*
Y6478300D01*
X9682700Y6321700D02*
X10017300D01*
X9682700D02*
Y6478300D01*
X10367700Y7078300D02*
X10702300D01*
Y6921700D02*
Y7078300D01*
X10367700Y6921700D02*
X10702300D01*
X10367700D02*
Y7078300D01*
X10621700Y6497700D02*
Y6832300D01*
X10778300D01*
Y6497700D02*
Y6832300D01*
X10621700Y6497700D02*
X10778300D01*
X6782700Y7921700D02*
X7117300D01*
X6782700D02*
Y8078300D01*
X7117300D01*
Y7921700D02*
Y8078300D01*
X6828300Y8232700D02*
Y8567300D01*
X6671700Y8232700D02*
X6828300D01*
X6671700D02*
Y8567300D01*
X6828300D01*
X6882700Y8721700D02*
X7217300D01*
X6882700D02*
Y8878300D01*
X7217300D01*
Y8721700D02*
Y8878300D01*
X6721700Y6682700D02*
Y7017300D01*
X6878300D01*
Y6682700D02*
Y7017300D01*
X6721700Y6682700D02*
X6878300D01*
X8582700Y6421700D02*
X8917300D01*
X8582700D02*
Y6578300D01*
X8917300D01*
Y6421700D02*
Y6578300D01*
X8897700Y9121700D02*
X9232300D01*
X8897700D02*
Y9278300D01*
X9232300D01*
Y9121700D02*
Y9278300D01*
D47*
X8235000Y6820000D02*
X9015000D01*
X8235000Y7600000D02*
X9015000D01*
Y6820000D02*
Y7600000D01*
X8235000Y6820000D02*
Y7600000D01*
X7425000Y8147500D02*
Y8647500D01*
X6925000D02*
X7425000D01*
X6925000Y8147500D02*
Y8647500D01*
Y8147500D02*
X7425000D01*
%TF.MD5,38eaafd113f15d96511531d7c772d2c9*%
M02*
