%TF.GenerationSoftware,Altium Limited,Altium Designer,26.9.1 (10)*%
G04 Layer_Color=0*
G04 Board_Origin=0|0*
%FSLAX45Y45*%
%MOMM*%
%TF.SameCoordinates,37759D03-2DEC-416C-86D4-F72473D3A6F1*%
%TF.FilePolarity,Positive*%
%TF.FileFunction,Plated,1,4,PTH,Drill*%
%TF.Part,Single*%
G01*
G75*
%TA.AperFunction,ComponentDrill*%
%ADD50C,0.85000*%
%ADD51C,0.85000*%
%TA.AperFunction,ViaDrill,NotFilled*%
%ADD52C,0.30000*%
%ADD53C,3.00000*%
D50*
X10900000Y6331000D02*
D03*
X8500000Y8931000D02*
D03*
X8700000D02*
D03*
Y8169000D02*
D03*
X8300000Y8931000D02*
D03*
Y8169000D02*
D03*
X8500000D02*
D03*
X7750000Y6419000D02*
D03*
Y7181000D02*
D03*
X10900000Y5569000D02*
D03*
X9250000Y6281000D02*
D03*
Y5519000D02*
D03*
D51*
X9569000Y9200000D02*
D03*
X10331000D02*
D03*
D52*
X8204865Y7835293D02*
D03*
X9304865D02*
D03*
X10409260Y9056115D02*
D03*
X8857088Y9003943D02*
D03*
X10900000Y7600000D02*
D03*
X9588789Y8790662D02*
D03*
X9442500Y7707500D02*
D03*
X10600000Y7150000D02*
D03*
X8879929Y9118209D02*
D03*
X8625000Y7430000D02*
D03*
X8735000D02*
D03*
X8845000D02*
D03*
X8515000Y7320000D02*
D03*
X8845000D02*
D03*
X8735000Y7210000D02*
D03*
Y7320000D02*
D03*
X8845000Y7210000D02*
D03*
X8735000Y7100000D02*
D03*
X8625000Y7320000D02*
D03*
Y7210000D02*
D03*
X8515000D02*
D03*
X8625000Y7100000D02*
D03*
X8515000D02*
D03*
X10800000Y6950000D02*
D03*
X10050000Y6400000D02*
D03*
X10550000Y6050000D02*
D03*
X10184962Y6302965D02*
D03*
X9106166Y4916376D02*
D03*
X8845000Y6990000D02*
D03*
Y7100000D02*
D03*
X8625000Y6990000D02*
D03*
X8515000D02*
D03*
X8735000D02*
D03*
X9000000Y6300000D02*
D03*
X8706381Y6341661D02*
D03*
X8492500Y9057500D02*
D03*
X8493169Y9044329D02*
D03*
X8489169Y9129229D02*
D03*
X7230000Y8452500D02*
D03*
Y8342500D02*
D03*
X7120000Y8452500D02*
D03*
Y8342500D02*
D03*
X6742500Y8007500D02*
D03*
X6642500Y8307500D02*
D03*
X8515000Y7430000D02*
D03*
X8405000Y7210000D02*
D03*
Y7430000D02*
D03*
Y7320000D02*
D03*
Y6990000D02*
D03*
Y7100000D02*
D03*
X7592500Y7457500D02*
D03*
X7120063Y7344260D02*
D03*
X6920063Y7094260D02*
D03*
X7292500Y6657500D02*
D03*
X6670063Y6944260D02*
D03*
X8140387Y5064529D02*
D03*
X9100000Y5250000D02*
D03*
X7542500Y8257500D02*
D03*
X8077855Y8042855D02*
D03*
X7992500Y6657500D02*
D03*
X7442500Y8057500D02*
D03*
X312500Y327500D02*
D03*
X8995816Y9010816D02*
D03*
X9542500Y9407500D02*
D03*
X9042500Y8157500D02*
D03*
X8692900Y7707500D02*
D03*
D53*
X6792500Y9357500D02*
D03*
Y4807500D02*
D03*
X11242500D02*
D03*
Y9307500D02*
D03*
%TF.MD5,0c2582481e8a1b8070134b344b48c81d*%
M02*
